<svg xmlns="http://www.w3.org/2000/svg" xmlns:xlink="http://www.w3.org/1999/xlink" width="500" zoomAndPan="magnify" viewBox="0 0 375 374.999991" height="500" preserveAspectRatio="xMidYMid meet" version="1.0"><defs><g/><clipPath id="6a915ad3a8"><path d="M 127.800781 182.011719 L 134.765625 182.011719 L 134.765625 193.222656 L 127.800781 193.222656 Z M 127.800781 182.011719 " clip-rule="nonzero"/></clipPath><clipPath id="353d609680"><path d="M 131.285156 182.011719 L 134.765625 193.195312 L 127.800781 193.195312 Z M 131.285156 182.011719 " clip-rule="nonzero"/></clipPath><clipPath id="9d02a9487d"><path d="M 93.351562 145.214844 L 169.101562 145.214844 L 169.101562 229.777344 L 93.351562 229.777344 Z M 93.351562 145.214844 " clip-rule="nonzero"/></clipPath><clipPath id="2cf92f6755"><path d="M 128.382812 181.804688 L 134.183594 181.804688 L 134.183594 187.605469 L 128.382812 187.605469 Z M 128.382812 181.804688 " clip-rule="nonzero"/></clipPath><clipPath id="9867c304cd"><path d="M 131.285156 181.804688 C 129.683594 181.804688 128.382812 183.101562 128.382812 184.703125 C 128.382812 186.304688 129.683594 187.605469 131.285156 187.605469 C 132.886719 187.605469 134.183594 186.304688 134.183594 184.703125 C 134.183594 183.101562 132.886719 181.804688 131.285156 181.804688 Z M 131.285156 181.804688 " clip-rule="nonzero"/></clipPath></defs><rect x="-37.5" width="450" fill="#ffffff" y="-37.499999" height="449.999989" fill-opacity="1"/><rect x="-37.5" width="450" fill="#000000" y="-37.499999" height="449.999989" fill-opacity="1"/><g clip-path="url(#6a915ad3a8)"><g clip-path="url(#353d609680)"><path fill="#ffffff" d="M 127.800781 182.011719 L 134.765625 182.011719 L 134.765625 193.195312 L 127.800781 193.195312 Z M 127.800781 182.011719 " fill-opacity="1" fill-rule="nonzero"/></g></g><g clip-path="url(#9d02a9487d)"><path fill="#0d7aff" d="M 165.609375 211.382812 L 134.777344 228.851562 C 133.699219 229.464844 132.488281 229.769531 131.28125 229.769531 C 130.070312 229.769531 128.859375 229.464844 127.78125 228.851562 L 96.949219 211.382812 C 94.730469 210.125 93.351562 207.757812 93.351562 205.207031 L 93.351562 170.628906 C 93.351562 168.113281 94.699219 165.765625 96.871094 164.496094 L 127.703125 146.511719 C 129.910156 145.226562 132.648438 145.226562 134.855469 146.511719 L 165.6875 164.496094 C 167.859375 165.765625 169.207031 168.113281 169.207031 170.628906 L 169.207031 198.046875 L 164.15625 194.109375 L 164.15625 170.628906 C 164.15625 169.902344 163.769531 169.226562 163.140625 168.859375 L 132.308594 150.878906 C 131.671875 150.507812 130.882812 150.507812 130.25 150.878906 L 128.09375 152.132812 L 132.457031 159.726562 C 143.84375 160.199219 153.492188 167.511719 157.390625 177.65625 L 157.390625 177.660156 C 158.011719 179.277344 158.488281 180.964844 158.800781 182.710938 L 142.988281 182.710938 C 141.125 178.0625 136.582031 174.773438 131.28125 174.773438 C 124.328125 174.773438 118.671875 180.429688 118.671875 187.382812 C 118.671875 194.332031 124.328125 199.988281 131.28125 199.988281 C 133.765625 199.988281 136.085938 199.265625 138.039062 198.015625 L 145.367188 198.015625 C 142.140625 202.28125 137.027344 205.039062 131.28125 205.039062 C 128.917969 205.039062 126.664062 204.574219 124.605469 203.730469 L 121.746094 208.488281 C 124.652344 209.824219 127.878906 210.570312 131.28125 210.570312 C 140.175781 210.570312 147.898438 205.472656 151.691406 198.046875 L 169.210938 198.046875 L 169.210938 205.207031 C 169.207031 207.757812 167.828125 210.125 165.609375 211.382812 Z M 146.011719 177.65625 L 151.886719 177.65625 C 148.164062 170.023438 140.328125 164.75 131.28125 164.75 C 130.707031 164.75 130.140625 164.777344 129.578125 164.820312 L 128.878906 163.609375 L 128.867188 163.617188 L 123.730469 154.679688 L 123.722656 154.683594 L 121.199219 150.308594 L 120.167969 156.757812 L 99.417969 168.863281 C 98.789062 169.226562 98.402344 169.902344 98.402344 170.628906 L 98.402344 205.207031 C 98.402344 205.941406 98.800781 206.625 99.4375 206.988281 L 101.539062 208.175781 L 106.304688 200.210938 C 104.394531 196.433594 103.320312 192.171875 103.320312 187.660156 C 103.320312 176.539062 109.84375 166.917969 119.265625 162.414062 L 121.792969 166.816406 L 124.289062 171.164062 C 126.433594 170.234375 128.796875 169.71875 131.28125 169.71875 C 137.425781 169.71875 142.847656 172.878906 146.011719 177.65625 Z M 154.574219 203.097656 C 149.5625 210.636719 140.992188 215.621094 131.28125 215.621094 C 125.125 215.621094 119.429688 213.617188 114.808594 210.234375 L 115.949219 208.335938 L 115.949219 208.332031 L 120.253906 201.164062 C 116.210938 197.925781 113.621094 192.949219 113.621094 187.378906 C 113.621094 181.933594 116.097656 177.054688 119.984375 173.8125 L 117.457031 169.410156 C 111.941406 173.597656 108.371094 180.21875 108.371094 187.660156 C 108.371094 192.308594 109.765625 196.632812 112.152344 200.25 L 111.613281 201.15625 L 111.621094 201.160156 L 104.609375 212.886719 L 104.59375 212.875 L 103.320312 214.992188 L 109.238281 212.539062 L 130.269531 224.457031 C 130.894531 224.808594 131.667969 224.808594 132.289062 224.457031 L 163.117188 206.988281 C 163.757812 206.625 164.15625 205.941406 164.15625 205.207031 L 164.15625 203.097656 Z M 154.574219 203.097656 " fill-opacity="1" fill-rule="nonzero"/></g><g clip-path="url(#2cf92f6755)"><g clip-path="url(#9867c304cd)"><path fill="#ffffff" d="M 128.382812 181.804688 L 134.183594 181.804688 L 134.183594 187.605469 L 128.382812 187.605469 Z M 128.382812 181.804688 " fill-opacity="1" fill-rule="nonzero"/></g></g><g fill="#ffffff" fill-opacity="1"><g transform="translate(181.05542, 188.672756)"><g><path d="M 14.828125 -20.984375 L 14.828125 -12.890625 L 6.921875 -12.890625 L 6.921875 -20.984375 L 2.390625 -20.984375 L 2.390625 0 L 6.921875 0 L 6.921875 -8.65625 L 14.828125 -8.65625 L 14.828125 0 L 19.359375 0 L 19.359375 -20.984375 Z M 14.828125 -20.984375 "/></g></g></g><g fill="#ffffff" fill-opacity="1"><g transform="translate(202.847397, 188.672756)"><g><path d="M 15.28125 -16.1875 L 14.828125 -14.65625 C 13.421875 -15.890625 11.59375 -16.625 9.5 -16.625 C 4.640625 -16.625 1.015625 -12.96875 1.015625 -8.09375 C 1.015625 -3.203125 4.640625 0.484375 9.5 0.484375 C 11.5625 0.484375 13.359375 -0.234375 14.75 -1.46875 L 15.140625 0 L 18.546875 0 L 18.546875 -16.1875 Z M 9.859375 -3.65625 C 7.3125 -3.65625 5.453125 -5.578125 5.453125 -8.09375 C 5.453125 -10.640625 7.3125 -12.53125 9.859375 -12.53125 C 12.40625 -12.53125 14.265625 -10.640625 14.265625 -8.09375 C 14.265625 -5.546875 12.40625 -3.65625 9.859375 -3.65625 Z M 9.859375 -3.65625 "/></g></g></g><g fill="#ffffff" fill-opacity="1"><g transform="translate(223.530288, 188.672756)"><g><path d="M 9.625 0.484375 C 13.84375 0.484375 17.171875 -2.28125 17.921875 -6.359375 L 13.515625 -6.359375 C 12.765625 -4.609375 11.390625 -3.65625 9.625 -3.65625 C 7.28125 -3.65625 5.453125 -5.609375 5.453125 -8.09375 C 5.453125 -10.609375 7.25 -12.53125 9.625 -12.53125 C 11.359375 -12.53125 12.828125 -11.5625 13.515625 -9.984375 L 17.859375 -9.984375 C 17.078125 -13.96875 13.84375 -16.625 9.65625 -16.625 C 4.734375 -16.625 1.015625 -12.96875 1.015625 -8.125 C 1.015625 -3.265625 4.734375 0.484375 9.625 0.484375 Z M 9.625 0.484375 "/></g></g></g><g fill="#ffffff" fill-opacity="1"><g transform="translate(242.264789, 188.672756)"><g><path d="M 16.9375 0 L 10.875 -8.453125 L 16.359375 -16.1875 L 11.328125 -16.1875 L 6.46875 -8.984375 L 6.46875 -22 L 2.09375 -22 L 2.09375 0 L 6.46875 0 L 6.46875 -7.734375 L 11.625 0 Z M 16.9375 0 "/></g></g></g><g fill="#ffffff" fill-opacity="1"><g transform="translate(259.080877, 188.672756)"><g><path d="M 17.796875 -8.125 C 17.796875 -12.796875 14.390625 -16.625 9.40625 -16.625 C 4.609375 -16.625 1.015625 -12.953125 1.015625 -8.09375 C 1.015625 -3.234375 4.640625 0.484375 9.40625 0.484375 C 13.1875 0.484375 16.265625 -1.765625 17.4375 -5.296875 L 12.859375 -5.296875 C 12.203125 -4.140625 10.9375 -3.421875 9.40625 -3.421875 C 7.28125 -3.421875 5.84375 -4.640625 5.453125 -6.859375 L 17.71875 -6.859375 C 17.765625 -7.28125 17.796875 -7.703125 17.796875 -8.125 Z M 9.40625 -12.890625 C 11.390625 -12.890625 12.796875 -11.8125 13.421875 -9.828125 L 5.578125 -9.828125 C 6.078125 -11.75 7.46875 -12.890625 9.40625 -12.890625 Z M 9.40625 -12.890625 "/></g></g></g><g fill="#ffffff" fill-opacity="1"><g transform="translate(277.905306, 188.672756)"><g><path d="M 10.375 -16.265625 C 8.265625 -16.265625 6.828125 -15.609375 5.671875 -14.171875 L 4.890625 -16.1875 L 2.09375 -16.1875 L 2.09375 0 L 6.46875 0 L 6.46875 -8.390625 C 6.46875 -11.03125 7.4375 -12.140625 9.890625 -12.140625 L 11.8125 -12.140625 L 11.8125 -16.265625 Z M 10.375 -16.265625 "/></g></g></g><g fill="#ffffff" fill-opacity="1"><g transform="translate(206.962681, 207.924274)"><g><path d="M 6.140625 -8.21875 L 6.140625 -3.203125 L 2.53125 -8.21875 L 0.9375 -8.21875 L 0.9375 0 L 2.671875 0 L 2.671875 -5.125 L 6.390625 0 L 7.890625 0 L 7.890625 -8.21875 Z M 6.140625 -8.21875 "/></g></g></g><g fill="#ffffff" fill-opacity="1"><g transform="translate(220.12774, 207.924274)"><g><path d="M 2.703125 -1.640625 L 2.703125 -3.328125 L 5.5625 -3.328125 L 5.5625 -4.9375 L 2.703125 -4.9375 L 2.703125 -6.578125 L 5.875 -6.578125 L 5.875 -8.21875 L 0.9375 -8.21875 L 0.9375 0 L 6 0 L 6 -1.640625 Z M 2.703125 -1.640625 "/></g></g></g><g fill="#ffffff" fill-opacity="1"><g transform="translate(231.028792, 207.924274)"><g><path d="M 10.1875 -8.21875 L 8.59375 -2.75 L 6.390625 -8.125 L 5.796875 -8.125 L 3.640625 -2.75 L 2.015625 -8.21875 L 0.140625 -8.21875 L 2.71875 0 L 4.3125 0 L 6.09375 -4.59375 L 7.921875 0 L 9.5 0 L 12.046875 -8.21875 Z M 10.1875 -8.21875 "/></g></g></g><g fill="#ffffff" fill-opacity="1"><g transform="translate(247.58398, 207.924274)"><g><path d="M 3.65625 0.171875 C 5.359375 0.171875 6.765625 -0.6875 6.765625 -2.46875 C 6.765625 -4.3125 5.203125 -4.6875 3.953125 -5.015625 C 3.078125 -5.21875 2.375 -5.390625 2.375 -5.96875 C 2.375 -6.515625 2.953125 -6.765625 3.515625 -6.765625 C 4.1875 -6.765625 4.78125 -6.4375 4.78125 -5.71875 L 6.53125 -5.71875 C 6.53125 -7.359375 5.453125 -8.359375 3.5625 -8.359375 C 1.75 -8.359375 0.59375 -7.46875 0.59375 -5.90625 C 0.59375 -4.125 2.09375 -3.765625 3.328125 -3.46875 C 4.21875 -3.265625 4.96875 -3.09375 4.96875 -2.4375 C 4.96875 -1.828125 4.3125 -1.484375 3.65625 -1.484375 C 2.921875 -1.484375 2.265625 -1.859375 2.265625 -2.65625 L 0.46875 -2.65625 C 0.46875 -0.890625 1.765625 0.171875 3.65625 0.171875 Z M 3.65625 0.171875 "/></g></g></g></svg>